PathFileType	4	(X/Y/Z)	/Users/niels/Desktop/University/Third Semester/Perception and Action/Exam/Gymnastics Motion Tracking/Code for Gym Tracking/Analyzed Data/Webcam_Backflip/id5_1_trajectory_Sports2D/id5_1_trajectory_Sports2D_px_person00.trc
DataRate	CameraRate	NumFrames	NumMarkers	Units	OrigDataRate	OrigDataStartFrame	OrigNumFrames
29.76190476190476	29.76190476190476	11	22	m	29.76190476190476	31	126
Frame#	Time	Hip			RHip			RKnee			RAnkle			RBigToe			RSmallToe			RHeel			LHip			LKnee			LAnkle			LBigToe			LSmallToe			LHeel			Neck			Head			Nose			RShoulder			RElbow			RWrist			LShoulder			LElbow			LWrist		
		X1	Y1	Z1	X2	Y2	Z2	X3	Y3	Z3	X4	Y4	Z4	X5	Y5	Z5	X6	Y6	Z6	X7	Y7	Z7	X8	Y8	Z8	X9	Y9	Z9	X10	Y10	Z10	X11	Y11	Z11	X12	Y12	Z12	X13	Y13	Z13	X14	Y14	Z14	X15	Y15	Z15	X16	Y16	Z16	X17	Y17	Z17	X18	Y18	Z18	X19	Y19	Z19	X20	Y20	Z20	X21	Y21	Z21	X22	Y22	Z22
31	1.0416	0.8283821920755047	-0.6405117360595243	0.0	0.797086656607089	-0.6450215419314632	0.0	0.7874390716040797	-0.7576424448850749	0.0	0.7835592749745633	-0.8627761844291854	0.0	0.78942036270579	-0.8952780702200562	0.0	0.7711675782626964	-0.8925059046415594	0.0	0.7828353360738348	-0.8725372889032547	0.0	0.8590020794011674	-0.6418570073011024	0.0	0.8800171218968618	-0.7419012622656035	0.0	0.875977964435676	-0.8716003983596797	0.0	0.8797569328870034	-0.901442827785147	0.0	0.8960130697135865	-0.8969225385939208	0.0	0.869977413738175	-0.8879331438449223	0.0	0.8243542435232719	-0.4467424266280858	0.0	0.8256656594583471	-0.36428386815338587	0.0	0.8251384872059153	-0.41139352791605105	0.0	0.7680167096634325	-0.4814286745884218	0.0	0.7493097946561278	-0.5667733097854729	0.0	0.7377108208509437	-0.6477706351599194	0.0	0.8808981230837257	-0.48122825350829085	0.0	0.8966462146234099	-0.5640289946993303	0.0	0.9156039722186254	-0.6429287798267476	0.0
32	1.0752000000000002	0.8300904473848798	-0.6432577380488811	0.0	0.798730693469611	-0.6474670369343704	0.0	0.7882517543922873	-0.7598170780761497	0.0	0.7836756939795717	-0.8613447667771583	0.0	0.7889576342755479	-0.8943450648362845	0.0	0.7703727591364845	-0.8909550379257618	0.0	0.7829504682806442	-0.869356745114821	0.0	0.8608514958270543	-0.6451192311574863	0.0	0.8783365685692135	-0.7497901259316593	0.0	0.8753988859441113	-0.8787259918845071	0.0	0.8748338019637124	-0.9086138897227096	0.0	0.8927392647575273	-0.9036381613109126	0.0	0.8703186378199037	-0.8939161097406908	0.0	0.8283477844991477	-0.4464897528265397	0.0	0.8306586147874107	-0.3635358502238206	0.0	0.829178604715252	-0.41050452102746177	0.0	0.7710463518006184	-0.4806305661396222	0.0	0.7519312195322178	-0.5664840699473277	0.0	0.7404736371733436	-0.6477467442970558	0.0	0.8849723888409332	-0.4824700921367035	0.0	0.8983263389865731	-0.5666851148719059	0.0	0.9162109777431122	-0.6473087257185727	0.0
33	1.1088000000000002	0.8318895286100465	-0.6451663292327529	0.0	0.8003109500311897	-0.6491343613327963	0.0	0.7888250060223256	-0.7622431472253012	0.0	0.7837778822611219	-0.8585806662595639	0.0	0.7882742539253402	-0.8926838064895954	0.0	0.7693351051360418	-0.8885578070273211	0.0	0.7832545407215281	-0.8647935855584337	0.0	0.8628397775844587	-0.6476444618194176	0.0	0.8774915629803648	-0.7566627150157679	0.0	0.8752252577334648	-0.8848541394884937	0.0	0.8712774396596122	-0.9143863848462714	0.0	0.8905153021974688	-0.908887458103985	0.0	0.870944542307163	-0.8993615090056041	0.0	0.8330210477307035	-0.44523968605248865	0.0	0.8365273020780611	-0.3617011417690899	0.0	0.8339249926669248	-0.40866857722866246	0.0	0.7745795903154211	-0.4786483513765631	0.0	0.7546403667151834	-0.5650431163930244	0.0	0.7427626783012694	-0.6468886774770323	0.0	0.8895482608972332	-0.4829645478227978	0.0	0.9004307679826395	-0.5687633537454375	0.0	0.9172104274526793	-0.6509523085000135	0.0
34	1.1424	0.833693900654308	-0.6460682080940323	0.0	0.8017810688329842	-0.6498853233396464	0.0	0.7889273202478201	-0.7651669417844288	0.0	0.7837933287418268	-0.8542063114860673	0.0	0.7873719856066668	-0.8902667166917555	0.0	0.7680428720381381	-0.8852539879511451	0.0	0.7836298151627468	-0.8585148890775446	0.0	0.8648972040578089	-0.6492528104210596	0.0	0.877413226195044	-0.762257627075388	0.0	0.8754228303856832	-0.8897684923737517	0.0	0.8691987043398146	-0.9185352952702456	0.0	0.8893451644217323	-0.9124670934265096	0.0	0.8717744540229089	-0.904005742732335	0.0	0.8380995862588484	-0.443085217731148	0.0	0.842936289011191	-0.3589060106477075	0.0	0.8391726095124162	-0.4060596630734135	0.0	0.7784605280110388	-0.4755969434696201	0.0	0.7573124341490122	-0.5626325401310441	0.0	0.7444394918613237	-0.6453325324477465	0.0	0.8943899273157893	-0.4826122077957253	0.0	0.9029222654764932	-0.5700429281750169	0.0	0.9186180360446514	-0.6536252159758159	0.0
35	1.1760000000000002	0.835399953575573	-0.6459966927952667	0.0	0.8031049780122202	-0.6496394159496376	0.0	0.7883967157186808	-0.7684759358971404	0.0	0.7838146123343558	-0.8479683503777068	0.0	0.7865685423931879	-0.887079379529341	0.0	0.7667905312386717	-0.8809609199984222	0.0	0.7840666449912065	-0.8502376404786014	0.0	0.866942854531118	-0.6498826067979947	0.0	0.8778825418391804	-0.7666206202193289	0.0	0.8758083090243782	-0.8933432378583468	0.0	0.8683473938628422	-0.9211173698009013	0.0	0.8889784543072625	-0.9144860290178201	0.0	0.8726165977352002	-0.9075259451227615	0.0	0.8432505536218698	-0.44020547443911606	0.0	0.8494355727182061	-0.35531237539717714	0.0	0.8446412011432317	-0.4028860091019345	0.0	0.7824498772693067	-0.47172021185948004	0.0	0.7598231659538875	-0.5595047962567232	0.0	0.7454489772844602	-0.6431518879247228	0.0	0.8992645353629237	-0.4813744531993519	0.0	0.905798188747145	-0.5703750164464296	0.0	0.920437063453306	-0.6551870866976502	0.0
36	1.2096000000000002	0.836858295689505	-0.6451059020528022	0.0	0.8041867323257926	-0.6483639722277273	0.0	0.7871851305601926	-0.771476926231536	0.0	0.7840886632885662	-0.840041529877547	0.0	0.7863544654483736	-0.8832641626014501	0.0	0.7660796100996496	-0.875844503888534	0.0	0.7847168165700821	-0.8402670710953996	0.0	0.8688263972070618	-0.649564513955752	0.0	0.8785895701004711	-0.7698999948482388	0.0	0.8761172258811992	-0.8955343986310378	0.0	0.8682564514138041	-0.9222914791770154	0.0	0.8890538725453744	-0.9152367264789629	0.0	0.8732561537844759	-0.9096598053430949	0.0	0.8481206621802028	-0.43680530763900616	0.0	0.8555232874220553	-0.3511171754255663	0.0	0.849958729876442	-0.39931148115984216	0.0	0.7862390421783776	-0.4673401532334316	0.0	0.7620447834910843	-0.5559391271112747	0.0	0.745814752079837	-0.6404156051257981	0.0	0.9039493186766456	-0.4793293167762407	0.0	0.9090730785696898	-0.5697350555793858	0.0	0.9226707131481543	-0.6556507383392016	0.0
37	1.2432	0.8379153065920314	-0.6435092456015307	0.0	0.8048914532282373	-0.6460444312103862	0.0	0.7853291723315116	-0.7728904920695108	0.0	0.7848612907003683	-0.831435721174558	0.0	0.7869008878500153	-0.8792973891612534	0.0	0.7662138398441064	-0.8705507417115608	0.0	0.7858733267614387	-0.8299884229326048	0.0	0.8703773453547964	-0.648365934969714	0.0	0.8792304083115373	-0.7721531459859697	0.0	0.8761436472220732	-0.8964063099285752	0.0	0.8683831125732911	-0.9222075105722354	0.0	0.8891899455795648	-0.9150510646302891	0.0	0.873574482689344	-0.9103195395983699	0.0	0.8523741982783767	-0.43305163301082433	0.0	0.8607285946982987	-0.3465306946232549	0.0	0.8546800939355816	-0.39544257571993197	0.0	0.7895403097514535	-0.4627571028153195	0.0	0.7638696798105392	-0.552175934620172	0.0	0.7456066183094523	-0.6372354644182867	0.0	0.9082381286979285	-0.47666283502693213	0.0	0.9127064751115018	-0.5682296699593351	0.0	0.925279947054287	-0.65518068350069	0.0
38	1.2768000000000002	0.8385163865484951	-0.6412149578587929	0.0	0.8051612087558925	-0.6426960485504056	0.0	0.7829266580252484	-0.7711831802364221	0.0	0.7861911723832475	-0.8239667148975427	0.0	0.7877398423404569	-0.8759868431832034	0.0	0.7669741179799029	-0.866157622004003	0.0	0.7878306982984764	-0.8217267666973533	0.0	0.871516889253868	-0.6463636373746093	0.0	0.8796008668810646	-0.7733431568373963	0.0	0.8758510397366355	-0.8961928326026628	0.0	0.8682599901163245	-0.921069989508252	0.0	0.8890781365053637	-0.9142788222125215	0.0	0.8736160815214618	-0.9096876240292647	0.0	0.85575005408973	-0.42907095689242086	0.0	0.8646920828014919	-0.34170850480037296	0.0	0.8583786788989993	-0.39135570791158336	0.0	0.7921747563707217	-0.4581733598549287	0.0	0.7652630768556394	-0.5483344236338454	0.0	0.7449240615693095	-0.6337327464086921	0.0	0.9119686622308493	-0.47355219647674335	0.0	0.9165752456001822	-0.5660277013191707	0.0	0.9281984662111565	-0.6540123235946368	0.0
39	1.3104000000000002	0.8387610557946376	-0.6381795739357592	0.0	0.8050880540636632	-0.638389357841209	0.0	0.7801685226539504	-0.7652655546177948	0.0	0.7878380195382289	-0.8195939490062014	0.0	0.7880311260466678	-0.8742152728252951	0.0	0.7677275798800275	-0.8638088133012806	0.0	0.7905819615340819	-0.8178300856234285	0.0	0.8723025342087312	-0.6436307377843261	0.0	0.8796523484873394	-0.7734565915823103	0.0	0.8753482411972494	-0.8952907041250744	0.0	0.8676572257617476	-0.9192366316514208	0.0	0.8885994578913269	-0.9133002486669105	0.0	0.8735423175468503	-0.9082197233806251	0.0	0.8581270514497996	-0.42495271852519906	0.0	0.8672333468464459	-0.33671435422737234	0.0	0.8607705090609774	-0.38708761131882485	0.0	0.7940754672828846	-0.4536838255468748	0.0	0.766281229981136	-0.5443922705783073	0.0	0.7438832073712461	-0.6300139678135895	0.0	0.9150488938644378	-0.47006857178402506	0.0	0.9205114294256257	-0.5632770491708975	0.0	0.9313848044425216	-0.6523576145600072	0.0
40	1.3440000000000003	0.8388173930200399	-0.6344163944519418	0.0	0.8048362156960719	-0.6332849816935655	0.0	0.777354767726396	-0.755212312159409	0.0	0.7892979389584363	-0.8195162283267006	0.0	0.7870174214800666	-0.8745377845658335	0.0	0.7677358280809905	-0.8641901038089074	0.0	0.793627580881893	-0.8196168436861839	0.0	0.8728515084077679	-0.6402644678700119	0.0	0.8794640074333505	-0.7725789612382249	0.0	0.8747836238495145	-0.8940954247149426	0.0	0.8666528698097471	-0.9171821385910264	0.0	0.8878479604076557	-0.9124467422679006	0.0	0.8734957033214064	-0.9064677186021827	0.0	0.8595306559717694	-0.42073759813520867	0.0	0.868351586505002	-0.3315400828252351	0.0	0.8617832011938295	-0.3826376369437811	0.0	0.7952354457550442	-0.4493273094859599	0.0	0.7670132179063671	-0.540310173843728	0.0	0.742577318661614	-0.6262077086482901	0.0	0.9174487416045037	-0.4662094175869519	0.0	0.9243447723607878	-0.5600866615212948	0.0	0.9348064069561108	-0.6503376957770863	0.0
41	1.3776000000000002	0.8387874895908738	-0.6301264523857911	0.0	0.8045035902548553	-0.6277130442016565	0.0	0.7748358657121701	-0.7425208719858761	0.0	0.7899980861004374	-0.8236831388517106	0.0	0.7842952186286615	-0.8768294193177271	0.0	0.7664067360137123	-0.8671467637193013	0.0	0.7961537882174412	-0.8268895818885729	0.0	0.8732254124827666	-0.636465828270765	0.0	0.8791430829188362	-0.7708881759767331	0.0	0.8742824732086444	-0.8928514540424163	0.0	0.8655075253741051	-0.9153675418244193	0.0	0.8870101971402156	-0.9119140197303623	0.0	0.8735022905983156	-0.904834861588884	0.0	0.8600686391887773	-0.416439907888237	0.0	0.8681662508646191	-0.32615651643817367	0.0	0.8615310324695579	-0.3780264246444718	0.0	0.7956659649514488	-0.44513531240858545	0.0	0.7675015346515699	-0.5361672870382652	0.0	0.7410665780500961	-0.6224810779198467	0.0	0.9191706205874396	-0.4619826587313422	0.0	0.9279055230153453	-0.556535354241521	0.0	0.9383783172850969	-0.6479268855427877	0.0
